<svg width="26" height="31" viewBox="0 0 26 31" fill="none" xmlns="http://www.w3.org/2000/svg">
<path fill-rule="evenodd" clip-rule="evenodd" d="M12.6047 26.9657L19.5367 19.9033C23.3647 16.003 23.3645 9.67966 19.5363 5.7796C15.708 1.87953 9.50133 1.87953 5.67308 5.77959C1.84483 9.67966 1.84462 16.003 5.67261 19.9033L12.6047 26.9657V26.9657ZM12.6038 31L3.6915 21.9203C-1.23053 16.9057 -1.2305 8.77546 3.69157 3.76091C8.61364 -1.25364 16.5939 -1.25364 21.5159 3.76091C26.438 8.77546 26.438 16.9057 21.516 21.9203L12.6038 31V31ZM12.6045 15.6941C14.1514 15.6941 15.4054 14.4166 15.4054 12.8406C15.4054 11.2647 14.1514 9.98717 12.6045 9.98717C11.0577 9.98717 9.80371 11.2647 9.80371 12.8406C9.80371 14.4166 11.0577 15.6941 12.6045 15.6941V15.6941ZM12.6046 18.5477C9.51088 18.5477 7.00293 15.9926 7.00293 12.8407C7.00293 9.68886 9.51088 7.13378 12.6046 7.13378C15.6983 7.13378 18.2063 9.68886 18.2063 12.8407C18.2063 15.9926 15.6983 18.5477 12.6046 18.5477V18.5477Z" fill="#133F63"/>
</svg>
