<svg width="22" height="24" viewBox="0 0 22 24" fill="none" xmlns="http://www.w3.org/2000/svg">
<path d="M11 12.0001C9.875 12.0001 8.89062 11.7657 7.95312 11.2032C7.01562 10.6876 6.3125 9.9845 5.79688 9.047C5.23438 8.1095 5 7.12512 5 6.00012C5 4.922 5.23438 3.93762 5.79688 3.00012C6.3125 2.06262 7.01562 1.3595 7.95312 0.796997C8.89062 0.281372 9.875 0.00012207 11 0.00012207C12.0781 0.00012207 13.0625 0.281372 14 0.796997C14.9375 1.3595 15.6406 2.06262 16.2031 3.00012C16.7188 3.93762 17 4.922 17 6.00012C17 7.12512 16.7188 8.1095 16.2031 9.047C15.6406 9.9845 14.9375 10.6876 14 11.2032C13.0625 11.7657 12.0781 12.0001 11 12.0001ZM15.2188 13.5001C16.3438 13.5001 17.375 13.7814 18.3594 14.3439C19.2969 14.9064 20.0938 15.7032 20.6562 16.6407C21.2188 17.6251 21.5 18.6564 21.5 19.7814V21.7501C21.5 22.4064 21.2656 22.922 20.8438 23.3439C20.375 23.8126 19.8594 24.0001 19.25 24.0001H2.75C2.09375 24.0001 1.57812 23.8126 1.15625 23.3439C0.6875 22.922 0.5 22.4064 0.5 21.7501V19.7814C0.5 18.6564 0.78125 17.6251 1.34375 16.6407C1.90625 15.7032 2.65625 14.9064 3.64062 14.3439C4.57812 13.7814 5.65625 13.5001 6.78125 13.5001H7.57812C8.65625 14.0157 9.78125 14.2501 11 14.2501C12.1719 14.2501 13.2969 14.0157 14.4219 13.5001H15.2188Z" fill="#133F63"/>
</svg>
